<svg xmlns="http://www.w3.org/2000/svg" width="1600" height="700" viewBox="0 0 1600 700">
<defs>
 <linearGradient id="bg" x1="0" y1="0" x2="1" y2="1"><stop offset="0" stop-color="#f8fbff"/><stop offset="1" stop-color="#eef4fb"/></linearGradient>
 <filter id="shadow" x="-20%" y="-20%" width="140%" height="140%"><feDropShadow dx="0" dy="8" stdDeviation="12" flood-opacity=".12"/></filter>
</defs>
<rect width="1600" height="700" fill="url(#bg)"/>
<text x="800" y="245" text-anchor="middle" font-family="Arial,sans-serif" font-size="82" font-weight="800" fill="#1e3554">TaxiTracker</text>
<text x="800" y="305" text-anchor="middle" font-family="Arial,sans-serif" font-size="28" fill="#52677f">Fleet Management · GPS Tracking · Event-Driven Architecture</text>
<g filter="url(#shadow)">
 <rect x="270" y="365" width="1060" height="170" rx="28" fill="#ffffff" stroke="#b7c9df" stroke-width="2"/>
</g>
<g font-family="Arial,sans-serif" text-anchor="middle">
 <circle cx="400" cy="450" r="43" fill="#2f88df"/><text x="400" y="463" font-size="43" fill="#fff">🚕</text>
 <text x="400" y="505" font-size="18" font-weight="700" fill="#20324d">Fleet</text>
 <path d="M450 450H590" stroke="#6c7d91" stroke-width="3" marker-end="url(#arrow)"/>
 <circle cx="650" cy="450" r="43" fill="#e2a91d"/><text x="650" y="463" font-size="35" fill="#fff">K</text>
 <text x="650" y="505" font-size="18" font-weight="700" fill="#20324d">Kafka</text>
 <path d="M700 450H840" stroke="#6c7d91" stroke-width="3"/>
 <circle cx="900" cy="450" r="43" fill="#2e6ea8"/><text x="900" y="463" font-size="35" font-weight="700" fill="#fff">P</text>
 <text x="900" y="505" font-size="18" font-weight="700" fill="#20324d">PostGIS</text>
 <path d="M950 450H1090" stroke="#6c7d91" stroke-width="3"/>
 <circle cx="1150" cy="450" r="43" fill="#f36f3d"/><text x="1150" y="463" font-size="35" fill="#fff">M</text>
 <text x="1150" y="505" font-size="18" font-weight="700" fill="#20324d">Monitoring</text>
</g>
<text x="800" y="615" text-anchor="middle" font-family="Arial,sans-serif" font-size="19" fill="#52677f">Django · DRF · Redis · Prometheus · Grafana · Docker</text>
</svg>