<svg xmlns="http://www.w3.org/2000/svg" width="1600" height="700" viewBox="0 0 1600 700">
<defs>
 <linearGradient id="bg" x1="0" y1="0" x2="1" y2="1"><stop offset="0" stop-color="#f8fbff"/><stop offset="1" stop-color="#eef4fb"/></linearGradient>
 <filter id="shadow" x="-20%" y="-20%" width="140%" height="140%"><feDropShadow dx="0" dy="8" stdDeviation="12" flood-opacity=".12"/></filter>
</defs>
<rect width="1600" height="700" fill="url(#bg)"/>
<text x="800" y="75" text-anchor="middle" font-family="Arial,sans-serif" font-size="40" font-weight="800" fill="#1e3554">OBSERVABILITY</text>
<text x="800" y="112" text-anchor="middle" font-family="Arial,sans-serif" font-size="18" fill="#60758c">Metrics, dashboards and alert routing</text>
<g font-family="Arial,sans-serif" text-anchor="middle">
 <g filter="url(#shadow)"><rect x="90" y="245" width="300" height="150" rx="20" fill="#f4fbf5" stroke="#62b26b" stroke-width="2"/></g>
 <text x="240" y="292" font-size="25" font-weight="800" fill="#174c35">Django</text>
 <text x="240" y="327" font-size="17" fill="#52677f">Application</text><text x="240" y="354" font-size="17" fill="#52677f">Metrics</text>
 <path d="M390 320H510" stroke="#6c7d91" stroke-width="4"/><path d="M510 320l-14-9v18z" fill="#6c7d91"/>
 <g filter="url(#shadow)"><rect x="510" y="245" width="300" height="150" rx="20" fill="#fff8f6" stroke="#ef9d8d" stroke-width="2"/></g>
 <text x="660" y="292" font-size="25" font-weight="800" fill="#6b2920">Prometheus</text>
 <text x="660" y="327" font-size="17" fill="#52677f">Collection</text><text x="660" y="354" font-size="17" fill="#52677f">Alert Rules</text>
 <path d="M810 320H930" stroke="#6c7d91" stroke-width="4"/><path d="M930 320l-14-9v18z" fill="#6c7d91"/>
 <g filter="url(#shadow)"><rect x="930" y="205" width="300" height="115" rx="20" fill="#fffaf3" stroke="#efb95e" stroke-width="2"/></g>
 <text x="1080" y="250" font-size="25" font-weight="800" fill="#49351c">Grafana</text><text x="1080" y="282" font-size="17" fill="#52677f">Dashboards</text>
 <path d="M1080 320V405" stroke="#6c7d91" stroke-width="4"/><path d="M1080 405l-9-14h18z" fill="#6c7d91"/>
 <g filter="url(#shadow)"><rect x="930" y="405" width="300" height="115" rx="20" fill="#fff8f6" stroke="#ef9d8d" stroke-width="2"/></g>
 <text x="1080" y="450" font-size="25" font-weight="800" fill="#40211b">Alertmanager</text><text x="1080" y="482" font-size="17" fill="#52677f">Routing</text>
 <path d="M930 462H810" stroke="#7046c8" stroke-width="4"/><path d="M810 462l14-9v18z" fill="#7046c8"/>
 <g filter="url(#shadow)"><rect x="510" y="405" width="300" height="115" rx="20" fill="#f3f8ff" stroke="#5b8def" stroke-width="2"/></g>
 <text x="660" y="450" font-size="25" font-weight="800" fill="#234b88">Telegram</text><text x="660" y="482" font-size="17" fill="#52677f">Critical Alerts</text>
 <text x="800" y="610" font-size="18" font-weight="700" fill="#52677f">HTTP · DB · Latency · Errors · Runtime</text>
</g>
</svg>